<svg xmlns="http://www.w3.org/2000/svg" width="59.049" height="35.347" viewBox="0 0 59.049 35.347">
  <g id="Groupe_994" data-name="Groupe 994" transform="translate(0.01 0.001)">
    <g id="g10305">
      <path id="path2268" d="M156.161,19.545a17.669,17.669,0,0,1-35.338.009v-.009a17.669,17.669,0,1,1,35.338-.009Z" transform="translate(-97.122 -1.872)" fill="#fa9f1d"/>
      <path id="path1350" d="M19.522,1.895a17.669,17.669,0,1,0,12,30.734h0a17.834,17.834,0,0,0,1.794-1.892H29.7a17.257,17.257,0,0,1-1.317-1.82h6.243a17.7,17.7,0,0,0,1.029-1.892h-8.3a17.427,17.427,0,0,1-.738-1.856H36.4a17.746,17.746,0,0,0,.5-9.388H26.1a17.616,17.616,0,0,1,.5-1.856h9.784a17.669,17.669,0,0,0-.762-1.892h-8.27a16.953,16.953,0,0,1,1.014-1.856H34.6a17.707,17.707,0,0,0-1.371-1.892H29.755A16.4,16.4,0,0,1,31.528,6.5,17.606,17.606,0,0,0,19.636,1.9Z" transform="translate(-1.967 -1.89)" fill="#e71b26"/>
      <path id="use9412" d="M286.848,136.82a.586.586,0,0,1,.281.074.521.521,0,0,1,.213.212.572.572,0,0,1,0,.57.532.532,0,0,1-.212.212.577.577,0,0,1-.568,0,.54.54,0,0,1-.212-.212.573.573,0,0,1,0-.57.531.531,0,0,1,.214-.212.593.593,0,0,1,.282-.074m0,.1a.487.487,0,0,0-.234.062.439.439,0,0,0-.178.177.476.476,0,0,0-.065.238.485.485,0,0,0,.063.237.458.458,0,0,0,.177.176.479.479,0,0,0,.474,0,.451.451,0,0,0,.176-.176.484.484,0,0,0,.062-.237.475.475,0,0,0-.064-.238.435.435,0,0,0-.178-.177.479.479,0,0,0-.233-.062m-.251.793v-.615h.212a.492.492,0,0,1,.156.018.151.151,0,0,1,.077.059.159.159,0,0,1,.029.09.162.162,0,0,1-.048.117.189.189,0,0,1-.127.056.179.179,0,0,1,.053.033.68.68,0,0,1,.091.122l.075.12h-.121l-.054-.1a.5.5,0,0,0-.1-.143.13.13,0,0,0-.079-.021H286.7v.261h-.1m.1-.347h.12a.194.194,0,0,0,.117-.026.084.084,0,0,0,.032-.068.081.081,0,0,0-.015-.049.093.093,0,0,0-.042-.032.31.31,0,0,0-.1-.011H286.7v.186" transform="translate(-229.582 -109.91)" fill="#fcb340"/>
    </g>
    <g id="g16480" transform="translate(1.127 13.11)">
      <g id="g13802" transform="translate(0 0.372)">
        <path id="path13804" d="M122.041,66.68l.235-1.6c-.129,0-.318.056-.485.056-.655,0-.737-.35-.685-.606l.645-3.216h1l.205-1.815h-.938l.191-1.1h-1.963c-.041.041-1.11,6.186-1.11,6.935a1.4,1.4,0,0,0,1.5,1.593,4.94,4.94,0,0,0,1.4-.247Z" transform="translate(-99.636 -57.42)"/>
        <path id="path13806" d="M136.706,67.207a2.953,2.953,0,0,0,3.25,3.29,5.656,5.656,0,0,0,2.1-.32l.331-1.815a6.816,6.816,0,0,1-2.114.474c-2.02,0-1.666-1.506-1.666-1.506l3.881.012a13.507,13.507,0,0,0,.247-1.715A2.578,2.578,0,0,0,140,62.865C138.107,62.865,136.706,64.9,136.706,67.207Zm3.3-2.657c1.062,0,.866,1.193.866,1.29h-2.089c0-.124.2-1.29,1.222-1.29Z" transform="translate(-113.705 -60.996)"/>
        <path id="path13808" d="M192.366,62.751,192.7,60.7a4.53,4.53,0,0,1-1.557.463,1.862,1.862,0,0,1-1.87-2.114c0-2.221,1.148-3.443,2.426-3.443a3.349,3.349,0,0,1,1.728.538l.307-1.993a3.742,3.742,0,0,0-1.886-.66c-2.94-.012-4.623,2.036-4.623,5.575,0,2.346,1.246,3.942,3.491,3.942a8.7,8.7,0,0,0,1.65-.257Z" transform="translate(-154.153 -53.492)"/>
        <path id="path13810" d="M67.794,63.012a6.5,6.5,0,0,0-2.279.415l-.273,1.621a5.939,5.939,0,0,1,2.05-.332c.7,0,1.213.079,1.213.648a1.206,1.206,0,0,1-.063.473s-.553-.046-.809-.046c-1.837,0-3.336.694-3.336,2.788a1.785,1.785,0,0,0,1.816,2.028A2.318,2.318,0,0,0,68,69.766l-.015.7h1.657l.739-5.181a2.224,2.224,0,0,0-2.587-2.273Zm.287,4.207c.036.316-.082,1.812-1.215,1.812a.685.685,0,0,1-.736-.71c0-.515.28-1.133,1.658-1.133C68.109,67.187,68.027,67.21,68.081,67.219Z" transform="translate(-55.736 -61.114)"/>
        <path id="path13812" d="M95.139,70.615c.424,0,2.846.108,2.846-2.392,0-2.337-2.242-1.875-2.242-2.814,0-.467.366-.614,1.034-.614.265,0,1.286.084,1.286.084l.237-1.661a8.777,8.777,0,0,0-1.736-.148c-1.392,0-2.8.556-2.8,2.456,0,2.154,2.355,1.938,2.355,2.845,0,.606-.658.655-1.165.655a6.148,6.148,0,0,1-1.67-.287l-.251,1.644A5.99,5.99,0,0,0,95.139,70.615Z" transform="translate(-78.737 -61.16)"/>
        <path id="path13814" d="M269.458,55.455l-.34,2.534a2.487,2.487,0,0,0-1.817-.978c-2.086,0-3.16,2.078-3.16,4.466,0,1.541.767,3.052,2.333,3.052a2.352,2.352,0,0,0,1.752-.786l-.083.671h1.83l1.437-8.946Zm-.808,4.926c0,.994-.492,2.321-1.512,2.321-.677,0-.995-.569-.995-1.46,0-1.459.655-2.421,1.482-2.421.675,0,1.026.464,1.026,1.56Z" transform="translate(-215.728 -55.064)"/>
        <path id="path13816" d="M23.234,64.365l1.145-6.754.168,6.754h1.3l2.418-6.754L27.19,64.365h1.926L30.6,55.407l-3.059-.023-1.82,5.485-.05-5.461h-2.8l-1.5,8.958h1.872Z" transform="translate(-21.362 -55.007)"/>
        <path id="path13818" d="M168.344,68.592c.548-3.114.743-5.573,2.34-5.064a10.853,10.853,0,0,1,1.026-2.763s-.079-.117-.573-.117c-.842,0-1.967,1.71-1.967,1.71l.168-1.057h-1.752l-1.173,7.292h1.932Z" transform="translate(-137.487 -59.22)"/>
        <g id="use14699" transform="translate(38.657 1.898)">
          <path id="path13810_1_" d="M-626.587,63.012a6.5,6.5,0,0,0-2.279.415l-.273,1.621a5.941,5.941,0,0,1,2.05-.332c.7,0,1.213.079,1.213.648a1.208,1.208,0,0,1-.062.473s-.553-.046-.809-.046c-1.837,0-3.336.694-3.336,2.788a1.785,1.785,0,0,0,.439,1.434,1.785,1.785,0,0,0,1.377.594,2.318,2.318,0,0,0,1.883-.841l-.016.7h1.657l.739-5.181a2.224,2.224,0,0,0-.753-1.748,2.224,2.224,0,0,0-1.83-.525Zm.286,4.207c.036.316-.082,1.812-1.215,1.812a.685.685,0,0,1-.527-.19.685.685,0,0,1-.209-.52c0-.515.279-1.133,1.658-1.133.322,0,.24.022.294.031Z" transform="translate(630.083 -63.012)"/>
        </g>
        <path id="use14701" d="M247.508,71.211c.3-2.291.857-5.507,2.339-5.064.229-1.205.008-1.2-.485-1.2a8.8,8.8,0,0,0-1.03.031l.168-1.057h-1.752l-1.173,7.292h1.933Z" transform="translate(-200.864 -61.84)"/>
      </g>
      <g id="g10289" transform="translate(0.549)">
        <path id="path4157" d="M110.754,79.812l.235-1.6c-.129,0-.318.055-.485.055-.655,0-.727-.348-.685-.606l.529-3.263h1l.24-1.769h-.938l.191-1.1H108.96c-.041.041-1.11,6.186-1.11,6.934a1.4,1.4,0,0,0,1.5,1.593,4.948,4.948,0,0,0,1.4-.244Z" transform="translate(-88.407 -70.751)" fill="#fff"/>
        <path id="path4155" d="M125.423,80.338a2.953,2.953,0,0,0,3.25,3.29,4.788,4.788,0,0,0,1.987-.308l.331-1.814a5.858,5.858,0,0,1-2,.462c-2.02,0-1.666-1.506-1.666-1.506h3.823a13.534,13.534,0,0,0,.247-1.716A2.522,2.522,0,0,0,128.715,76C126.823,76,125.423,78.035,125.423,80.338Zm3.3-2.657c1.062,0,.866,1.193.866,1.29H127.5c0-.124.2-1.29,1.222-1.29Z" transform="translate(-102.48 -74.325)" fill="#fff"/>
        <path id="path4151" d="M181.507,76.679l.337-2.051a4.525,4.525,0,0,1-1.557.463,1.862,1.862,0,0,1-1.87-2.114c0-2.221,1.148-3.443,2.426-3.443a3.35,3.35,0,0,1,1.728.538l.307-1.993a6.755,6.755,0,0,0-2.119-.462c-2.172,0-4.285,1.884-4.285,5.422,0,2.346,1.141,3.9,3.386,3.9A8.674,8.674,0,0,0,181.507,76.679Z" transform="translate(-143.352 -67.618)" fill="#fff"/>
        <path id="path4149" d="M56.51,76.143a6.5,6.5,0,0,0-2.279.415l-.273,1.621a5.939,5.939,0,0,1,2.05-.332c.7,0,1.213.079,1.213.648a1.2,1.2,0,0,1-.063.473s-.553-.046-.808-.046c-1.627,0-3.336.694-3.336,2.788a1.786,1.786,0,0,0,1.816,2.028,2.448,2.448,0,0,0,1.93-.864l-.062.719h1.657l.739-5.181a2.224,2.224,0,0,0-2.584-2.269Zm.4,4.218c.036.316-.2,1.8-1.331,1.8a.685.685,0,0,1-.736-.71c0-.515.28-1.133,1.658-1.133a1.2,1.2,0,0,1,.412.043Z" transform="translate(-44.51 -74.443)" fill="#fff"/>
        <path id="path4145" d="M83.856,83.746c.424,0,2.846.108,2.846-2.392,0-2.337-2.242-1.875-2.242-2.814,0-.467.366-.615,1.034-.615.265,0,1.286.084,1.286.084l.237-1.661a8.775,8.775,0,0,0-1.736-.148c-1.392,0-2.8.556-2.8,2.456,0,2.154,2.355,1.938,2.355,2.845,0,.606-.658.655-1.165.655A6.142,6.142,0,0,1,82,81.87l-.251,1.644a5.971,5.971,0,0,0,2.107.232Z" transform="translate(-67.512 -74.489)" fill="#fff"/>
        <path id="path4139" d="M258.241,68.656l-.406,2.518a2.486,2.486,0,0,0-1.817-.978c-1.724,0-3.16,2.078-3.16,4.466,0,1.541.766,3.052,2.333,3.052a2.352,2.352,0,0,0,1.752-.786l-.083.671h1.83l1.437-8.946Zm-.874,4.91c0,.994-.492,2.321-1.512,2.321-.677,0-.994-.568-.994-1.46,0-1.458.655-2.421,1.482-2.421.677,0,1.024.464,1.024,1.559Z" transform="translate(-204.503 -68.447)" fill="#fff"/>
        <path id="path4133" d="M12.184,77.59l1.145-6.754L13.5,77.59h1.3l2.418-6.754L16.14,77.59h1.926l1.483-8.958H16.571l-1.855,5.5-.1-5.5H11.875l-1.5,8.958Z" transform="translate(-10.37 -68.43)" fill="#fff"/>
        <path id="path4131" d="M157.062,83.965c.548-3.114.649-5.643,1.956-5.18a7.237,7.237,0,0,1,.7-2.182,1.985,1.985,0,0,0-.363-.025c-.842,0-1.467,1.151-1.467,1.151l.168-1.057H156.3l-1.174,7.292Z" transform="translate(-126.263 -74.792)" fill="#fff"/>
        <g id="use8523" transform="translate(39 1.7)">
          <path id="path4149_1_" d="M-637.567,76.143a6.5,6.5,0,0,0-2.279.415l-.273,1.621a5.939,5.939,0,0,1,2.05-.332c.7,0,1.213.079,1.213.648a1.209,1.209,0,0,1-.062.473s-.553-.046-.808-.046c-1.627,0-3.336.694-3.336,2.788a1.785,1.785,0,0,0,.439,1.434,1.785,1.785,0,0,0,1.377.594,2.447,2.447,0,0,0,1.93-.864l-.062.719h1.657l.739-5.181a2.224,2.224,0,0,0-.756-1.746,2.224,2.224,0,0,0-1.829-.523Zm.4,4.218c.036.316-.2,1.8-1.332,1.8a.685.685,0,0,1-.527-.19.685.685,0,0,1-.209-.52c0-.515.28-1.133,1.658-1.133a1.2,1.2,0,0,1,.414.043Z" transform="translate(641.063 -76.143)" fill="#fff"/>
        </g>
        <g id="use8525" transform="translate(44.661 1.787)">
          <path id="path4131_1_" d="M-206.018,83.965c.548-3.114.649-5.643,1.956-5.18a7.253,7.253,0,0,1,.7-2.182,1.985,1.985,0,0,0-.363-.025c-.842,0-1.467,1.151-1.467,1.151l.168-1.057h-1.752l-1.174,7.292Z" transform="translate(207.95 -76.579)" fill="#fff"/>
        </g>
        <path id="text9407" d="M286.808,107.975a.577.577,0,0,1,.28.074.517.517,0,0,1,.214.211.572.572,0,0,1,0,.57.529.529,0,0,1-.211.212.577.577,0,0,1-.569,0,.534.534,0,0,1-.211-.212.57.57,0,0,1,0-.57.524.524,0,0,1,.214-.211.585.585,0,0,1,.282-.074m0,.094a.484.484,0,0,0-.234.062.436.436,0,0,0-.178.176.478.478,0,0,0,0,.475.455.455,0,0,0,.178.177.481.481,0,0,0,.474,0,.453.453,0,0,0,.176-.177.477.477,0,0,0,0-.475.431.431,0,0,0-.178-.176.481.481,0,0,0-.234-.062m-.25.793v-.615h.212a.5.5,0,0,1,.157.018.151.151,0,0,1,.077.059.156.156,0,0,1,.029.09.163.163,0,0,1-.049.117.186.186,0,0,1-.127.056.19.19,0,0,1,.052.033.733.733,0,0,1,.091.122l.075.12h-.121l-.054-.1a.5.5,0,0,0-.1-.143.128.128,0,0,0-.079-.021h-.058v.261h-.1m.1-.346h.12a.192.192,0,0,0,.117-.026.083.083,0,0,0,.032-.068.081.081,0,0,0-.015-.048.091.091,0,0,0-.042-.033.313.313,0,0,0-.1-.011h-.113v.185" transform="translate(-231.225 -99.927)" fill="#fff"/>
      </g>
    </g>
  </g>
</svg>
