<?xml version="1.0" encoding="utf-8"?>
<!-- Generator: Adobe Illustrator 15.1.0, SVG Export Plug-In . SVG Version: 6.00 Build 0)  -->
<!DOCTYPE svg PUBLIC "-//W3C//DTD SVG 1.1//EN" "http://www.w3.org/Graphics/SVG/1.1/DTD/svg11.dtd">
<svg version="1.1" id="Calque_1" xmlns="http://www.w3.org/2000/svg" xmlns:xlink="http://www.w3.org/1999/xlink" x="0px" y="0px"
	 width="64.25px" height="46.167px" viewBox="0 0 64.25 46.167" enable-background="new 0 0 64.25 46.167" xml:space="preserve">
<g>
	<path fill="#ED530F" d="M63.48,16.878H52.809C50.812,7.873,42.457,0.406,32.451,0.406c-10.005,0-18.36,7.466-20.357,16.472H1.5
		v1.06h21.732c1.623-3.708,5.152-5.896,9.247-5.896s7.625,2.188,9.248,5.896H63.48V16.878z"/>
	<path fill="#FFFFFF" d="M32.479,35.402c-3.628,0-6.812-2.102-8.62-4.751H1.5v1.06h11.576c3.039,7.418,10.568,13.201,19.376,13.201
		c8.808,0,16.336-5.785,19.375-13.201H63.48v-1.06H41.1C39.291,33.3,36.107,35.402,32.479,35.402z"/>
</g>
<g>
	<path d="M8.277,21.973c0,0.706-0.263,1.273-0.787,1.702c-0.525,0.432-1.222,0.646-2.091,0.646c-0.221,0-0.533-0.027-0.935-0.085
		v3.158c0,0.452,0.031,0.718,0.092,0.795c0.062,0.078,0.289,0.126,0.683,0.144c0.221-0.01,0.332,0.026,0.332,0.104
		c0,0.07-0.066,0.104-0.197,0.104H5.189c-0.041,0-0.232,0-0.571,0c-0.341,0-0.691,0-1.052,0H2.128c-0.271,0-0.427-0.008-0.468-0.022
		s-0.061-0.038-0.061-0.069c0-0.061,0.065-0.092,0.197-0.092c0.402-0.008,0.641-0.045,0.72-0.111
		c0.078-0.065,0.117-0.254,0.117-0.568v-6.34c0-0.526-0.021-0.843-0.062-0.95c-0.041-0.106-0.25-0.161-0.627-0.161
		c-0.222,0-0.332-0.033-0.332-0.099c0-0.074,0.102-0.111,0.308-0.111l3.518-0.012c0.861,0,1.505,0.132,1.932,0.394
		C7.974,20.775,8.277,21.301,8.277,21.973z M6.297,22.041c0-1.217-0.381-1.827-1.144-1.827c-0.459,0-0.689,0.202-0.689,0.605v3.233
		c0.336,0,0.566-0.012,0.689-0.037c0.238-0.041,0.442-0.137,0.615-0.283C6.121,23.418,6.297,22.854,6.297,22.041z"/>
	<path d="M16.776,24.273c0,1.23-0.384,2.27-1.15,3.118c-0.767,0.851-1.708,1.272-2.823,1.272c-1.091,0-2.025-0.431-2.805-1.291
		c-0.778-0.86-1.168-1.897-1.168-3.11c0-1.247,0.387-2.289,1.163-3.125c0.775-0.836,1.736-1.254,2.884-1.254
		c1.106,0,2.034,0.42,2.78,1.261C16.403,21.983,16.776,23.026,16.776,24.273z M14.612,24.462c0-1.629-0.193-2.833-0.578-3.61
		c-0.254-0.507-0.656-0.762-1.205-0.762c-0.558,0-1.002,0.356-1.335,1.069c-0.332,0.712-0.498,1.667-0.498,2.861
		c0,1.735,0.296,3.034,0.886,3.894c0.246,0.361,0.603,0.541,1.07,0.541c0.541,0,0.923-0.258,1.144-0.773
		C14.439,26.878,14.612,25.806,14.612,24.462z"/>
	<path d="M26.013,28.414c0,0.076-0.152,0.115-0.455,0.115c-0.263,0-0.644,0-1.144,0c-0.369-0.008-0.623-0.008-0.762,0h-0.689H22.41
		c-0.181,0-0.271-0.037-0.271-0.109c0-0.058,0.022-0.09,0.067-0.1c0.044-0.009,0.19-0.018,0.437-0.025
		c0.131,0,0.197-0.039,0.197-0.121c0-0.033-0.224-0.362-0.674-0.99l-1.799-2.518c-0.106-0.106-0.184-0.191-0.232-0.258v3.106
		c0,0.366,0.03,0.585,0.091,0.653c0.061,0.069,0.265,0.113,0.613,0.129c0.203,0.008,0.304,0.049,0.304,0.121
		c0,0.074-0.074,0.11-0.221,0.11h-0.775c-0.517,0-1.046,0-1.587,0c-0.082,0-0.207,0-0.375,0s-0.346,0-0.535,0h-0.16
		c-0.132,0-0.197-0.036-0.197-0.11s0.137-0.115,0.412-0.123c0.274-0.008,0.442-0.045,0.504-0.109
		c0.062-0.066,0.092-0.246,0.092-0.54v-7.076c0-0.114-0.029-0.192-0.086-0.232c-0.083-0.049-0.258-0.074-0.529-0.074
		c-0.238,0-0.356-0.039-0.356-0.117c0-0.07,0.057-0.104,0.172-0.104l1.488,0.036c0.017,0,0.066,0,0.147,0c0.09,0,0.172,0,0.246,0
		l0.763-0.036h0.504c0.09,0,0.188,0,0.295,0c0.099,0,0.148,0.036,0.148,0.11c0,0.058-0.098,0.09-0.292,0.099
		c-0.323,0.017-0.516,0.047-0.576,0.092c-0.062,0.045-0.091,0.19-0.091,0.438v3.247c0.22-0.18,0.964-0.988,2.23-2.423
		c0.563-0.64,0.845-1.046,0.845-1.218c0-0.057-0.037-0.092-0.111-0.104c-0.073-0.012-0.283-0.019-0.627-0.019
		c-0.114,0-0.172-0.037-0.172-0.111c0-0.082,0.099-0.119,0.296-0.11h0.541c0.017,0,0.054,0,0.111,0c0.074,0,0.14,0,0.197,0h1.267
		c0.115,0,0.172,0.037,0.172,0.11c0,0.083-0.066,0.123-0.197,0.123c-0.304,0-0.51,0.021-0.621,0.062s-0.245,0.139-0.4,0.295
		c-0.763,0.796-1.558,1.679-2.386,2.648c0.139,0.196,0.533,0.709,1.181,1.539c0.451,0.565,1.094,1.394,1.932,2.478
		c0.369,0.492,0.61,0.785,0.726,0.879c0.114,0.095,0.283,0.143,0.504,0.143C25.883,28.32,26.013,28.351,26.013,28.414z"/>
	<path d="M32.691,26.365c0,0.016-0.002,0.396-0.012,1.143c-0.008,0.394-0.015,0.677-0.019,0.849s-0.007,0.254-0.007,0.246
		c-2.164-0.099-4.059-0.127-5.683-0.085h-1.033c-0.148,0-0.222-0.032-0.222-0.094c0-0.047,0.019-0.073,0.055-0.08
		c0.037-0.01,0.162-0.021,0.375-0.036c0.386-0.024,0.595-0.136,0.628-0.331c0.017-0.107,0.024-0.227,0.024-0.355v-6.229
		c0-0.491-0.004-0.761-0.012-0.811c-0.008-0.131-0.049-0.221-0.123-0.27c-0.073-0.049-0.226-0.074-0.455-0.074
		c-0.254,0-0.381-0.037-0.381-0.11c0-0.082,0.112-0.123,0.338-0.123c0.225,0,0.54-0.004,0.941-0.012
		c1.509-0.032,2.743-0.041,3.703-0.024h0.836c0.18,0,0.401-0.012,0.664-0.037l0.111,1.341c0.041,0.426,0.062,0.688,0.062,0.787
		c0,0.082-0.041,0.123-0.124,0.123c-0.082,0-0.136-0.106-0.16-0.319c-0.075-0.567-0.303-0.978-0.685-1.237
		c-0.383-0.258-0.948-0.387-1.696-0.387c-0.23,0-0.626,0.012-1.185,0.037v3.628c0.906,0.008,1.478-0.055,1.712-0.191
		c0.235-0.133,0.394-0.484,0.476-1.05c0.041-0.304,0.103-0.455,0.185-0.455c0.074,0,0.111,0.074,0.111,0.221
		c0,0.147-0.012,0.452-0.037,0.91c-0.008,0.156-0.012,0.365-0.012,0.628c0,0.705,0.009,1.238,0.025,1.6
		c0.008,0.049,0.012,0.109,0.012,0.186c0,0.098-0.037,0.146-0.11,0.146c-0.058,0-0.095-0.019-0.112-0.056
		c-0.016-0.036-0.041-0.168-0.074-0.399c-0.083-0.582-0.196-0.944-0.34-1.089c-0.144-0.143-0.476-0.215-0.995-0.215h-0.84v4.133
		h0.789c0.905-0.016,1.457-0.037,1.654-0.062c0.247-0.033,0.485-0.123,0.716-0.271c0.206-0.164,0.347-0.341,0.425-0.528
		c0.079-0.188,0.163-0.537,0.253-1.045c0.025-0.123,0.066-0.185,0.124-0.185C32.659,26.18,32.691,26.242,32.691,26.365z"/>
	<path d="M38.781,26.093c0,0.746-0.266,1.363-0.793,1.852c-0.528,0.488-1.204,0.73-2.023,0.73c-0.501,0-1.189-0.166-2.066-0.504
		c-0.065-0.024-0.123-0.037-0.172-0.037c-0.14,0-0.246,0.148-0.319,0.443c-0.024,0.09-0.058,0.135-0.099,0.135
		c-0.066,0-0.1-0.057-0.1-0.172c0-0.105,0.021-0.295,0.062-0.564c0.033-0.223,0.049-0.48,0.049-0.775
		c0-0.238-0.004-0.427-0.012-0.564c-0.017-0.278-0.024-0.443-0.024-0.493c0-0.131,0.041-0.197,0.123-0.197s0.155,0.177,0.221,0.529
		c0.114,0.606,0.373,1.077,0.774,1.415c0.435,0.359,0.902,0.541,1.402,0.541c0.442,0,0.815-0.139,1.119-0.418
		c0.303-0.278,0.455-0.619,0.455-1.021c0-0.345-0.1-0.619-0.295-0.824c-0.146-0.147-0.623-0.438-1.427-0.873
		c-0.894-0.476-1.501-0.951-1.82-1.428c-0.295-0.434-0.442-0.951-0.442-1.55c0-0.706,0.25-1.289,0.75-1.753
		c0.5-0.463,1.131-0.695,1.894-0.695c0.411,0,0.849,0.098,1.315,0.295c0.156,0.066,0.268,0.099,0.332,0.099
		c0.123,0,0.205-0.106,0.246-0.32c0.018-0.074,0.053-0.111,0.111-0.111c0.082,0,0.123,0.054,0.123,0.16
		c0,0.041-0.008,0.156-0.023,0.344c-0.018,0.188-0.024,0.344-0.024,0.467c0,0.426,0.016,0.787,0.048,1.082
		c0.008,0.024,0.014,0.057,0.014,0.099c0,0.074-0.033,0.11-0.1,0.11c-0.073,0-0.148-0.131-0.221-0.394
		c-0.074-0.262-0.203-0.523-0.389-0.781c-0.184-0.258-0.371-0.445-0.559-0.559c-0.246-0.148-0.533-0.221-0.861-0.221
		c-0.459,0-0.824,0.11-1.095,0.332c-0.271,0.221-0.406,0.525-0.406,0.91c0,0.337,0.127,0.633,0.382,0.892
		c0.254,0.259,0.741,0.589,1.463,0.991c0.885,0.491,1.472,0.886,1.758,1.181C38.57,24.88,38.781,25.43,38.781,26.093z"/>
	<path d="M48.018,28.517c0,0.049-0.037,0.074-0.11,0.074c-0.058,0-0.11-0.004-0.16-0.01c-0.288-0.035-1.09-0.053-2.411-0.053
		c-0.123,0-0.312,0-0.566,0h-0.381c-0.255,0.008-0.382-0.025-0.382-0.104c0-0.069,0.103-0.108,0.308-0.117
		c0.18-0.008,0.338-0.042,0.474-0.104c0.135-0.062,0.203-0.134,0.203-0.215c0.008-0.05,0.016-0.185,0.024-0.404V26.97v-2.844h-2.502
		c-0.146,0-0.289,0-0.426,0v3.799c0.008,0.214,0.172,0.341,0.493,0.382c0.253,0.034,0.401,0.055,0.442,0.067s0.062,0.039,0.062,0.08
		c0,0.051-0.041,0.074-0.123,0.074c-0.106,0-0.39-0.008-0.849-0.023c-0.459-0.018-0.651-0.025-0.577-0.025
		c-0.05,0-0.302,0.008-0.757,0.025c-0.455,0.016-0.889,0.023-1.299,0.023h-0.123c-0.146,0-0.221-0.037-0.221-0.111
		c0-0.064,0.057-0.098,0.174-0.098c0.385,0,0.651-0.049,0.799-0.148c0.065-0.039,0.099-0.256,0.099-0.65v-6.779
		c0-0.262-0.071-0.42-0.214-0.473c-0.143-0.054-0.374-0.08-0.692-0.08c-0.108,0-0.163-0.033-0.163-0.099
		c0-0.042,0.043-0.065,0.135-0.074c-0.033,0,0.275,0,0.925,0h1.53c0.312,0,0.625,0,0.938,0c0.141,0,0.223,0,0.247,0
		c0.114,0,0.173,0.041,0.173,0.123c0,0.057-0.021,0.091-0.064,0.104c-0.045,0.012-0.184,0.022-0.416,0.031
		c-0.233,0.008-0.377,0.059-0.434,0.153c-0.055,0.093-0.083,0.263-0.083,0.507v2.883l0.291,0.024
		c0.81,0.033,1.688,0.025,2.636-0.024v-2.751c0-0.56-0.201-0.839-0.604-0.839c-0.269,0-0.403-0.037-0.403-0.11
		c0-0.065,0.053-0.099,0.159-0.099h0.122c0.13,0,0.359,0,0.689,0c0.332,0,0.691,0,1.082,0h0.93h0.904
		c0.082,0,0.123,0.025,0.123,0.074c0,0.057-0.152,0.099-0.455,0.123c-0.305,0.024-0.494,0.088-0.566,0.19
		c-0.075,0.102-0.111,0.358-0.111,0.767v6.042c0,0.533,0.067,0.854,0.203,0.963c0.137,0.111,0.367,0.175,0.695,0.191
		C47.939,28.376,48.018,28.427,48.018,28.517z"/>
	<path d="M56.357,24.273c0,1.23-0.383,2.27-1.15,3.118c-0.768,0.851-1.708,1.272-2.823,1.272c-1.09,0-2.024-0.431-2.804-1.291
		c-0.779-0.861-1.168-1.897-1.168-3.111c0-1.247,0.387-2.289,1.162-3.125c0.775-0.836,1.736-1.254,2.884-1.254
		c1.106,0,2.034,0.42,2.78,1.261C55.982,21.983,56.357,23.026,56.357,24.273z M54.191,24.462c0-1.629-0.191-2.833-0.578-3.61
		c-0.252-0.507-0.654-0.762-1.204-0.762c-0.558,0-1.002,0.356-1.335,1.069c-0.331,0.712-0.498,1.667-0.498,2.861
		c0,1.735,0.296,3.034,0.886,3.894c0.247,0.361,0.604,0.541,1.071,0.541c0.541,0,0.922-0.258,1.143-0.773
		C54.021,26.878,54.191,25.806,54.191,24.462z"/>
	<path d="M63.527,21.973c0,0.706-0.262,1.273-0.786,1.702c-0.524,0.432-1.224,0.646-2.091,0.646c-0.221,0-0.533-0.027-0.936-0.085
		v3.158c0,0.452,0.031,0.718,0.092,0.795c0.062,0.078,0.289,0.126,0.684,0.144c0.221-0.01,0.332,0.026,0.332,0.104
		c0,0.07-0.066,0.104-0.198,0.104h-0.185c-0.041,0-0.231,0-0.571,0c-0.341,0-0.691,0-1.052,0h-1.438
		c-0.271,0-0.426-0.008-0.467-0.022c-0.042-0.015-0.062-0.038-0.062-0.069c0-0.061,0.064-0.092,0.196-0.092
		c0.402-0.008,0.642-0.045,0.72-0.111c0.077-0.065,0.117-0.254,0.117-0.568v-6.34c0-0.526-0.021-0.843-0.062-0.95
		c-0.041-0.106-0.25-0.161-0.627-0.161c-0.221,0-0.332-0.033-0.332-0.099c0-0.074,0.103-0.111,0.308-0.111l3.519-0.012
		c0.86,0,1.504,0.132,1.932,0.394C63.225,20.775,63.527,21.301,63.527,21.973z M61.547,22.041c0-1.217-0.382-1.827-1.145-1.827
		c-0.459,0-0.688,0.202-0.688,0.605v3.233c0.336,0,0.565-0.012,0.688-0.037c0.238-0.041,0.443-0.137,0.615-0.283
		C61.371,23.418,61.547,22.854,61.547,22.041z"/>
</g>
</svg>
