<svg xmlns="http://www.w3.org/2000/svg" width="83.905" height="27.158" viewBox="0 0 83.905 27.158">
  <g id="Groupe_65" data-name="Groupe 65" transform="translate(-1336.996 -3171.673)">
    <g id="Visa_Inc._logo" transform="translate(1336.996 3171.673)">
      <path id="polygon9" d="M440.3,137.015h-6.8l4.252-26.288h6.8Z" transform="translate(-403.943 -110.25)" fill="#191d66"/>
      <path id="path11" d="M585.569,106.167a16.751,16.751,0,0,0-6.1-1.119c-6.713,0-11.44,3.579-11.469,8.7-.056,3.776,3.384,5.873,5.957,7.132,2.63,1.286,3.524,2.126,3.524,3.273-.027,1.761-2.125,2.573-4.082,2.573a13.528,13.528,0,0,1-6.378-1.4l-.9-.42-.951,5.9a20.688,20.688,0,0,0,7.581,1.4c7.132,0,11.775-3.524,11.83-8.978.027-2.993-1.789-5.286-5.706-7.159-2.377-1.2-3.833-2.014-3.833-3.245.028-1.119,1.231-2.265,3.915-2.265a11.548,11.548,0,0,1,5.063,1.007l.615.279.924-5.677Z" transform="translate(-524.567 -105.048)" fill="#191d66"/>
      <path id="path13" d="M801.038,127.7c.56-1.51,2.714-7.355,2.714-7.355-.028.056.559-1.538.894-2.517l.475,2.265s1.287,6.292,1.567,7.607Zm8.39-16.975H804.17a3.354,3.354,0,0,0-3.553,2.181l-10.1,24.106h7.132s1.174-3.245,1.427-3.943H807.8c.2.923.811,3.943.811,3.943h6.294l-5.484-26.288Z" transform="translate(-731.003 -110.25)" fill="#191d66"/>
      <path id="path15" d="M182.617,110.727l-6.657,17.926-.727-3.636c-1.231-4.195-5.09-8.753-9.4-11.019l6.1,22.989h7.188l10.684-26.26Z" transform="translate(-158.731 -110.25)" fill="#191d66"/>
      <path id="path17" d="M92.214,110.727H81.278l-.112.531c8.531,2.181,14.181,7.44,16.5,13.76L95.29,112.937c-.391-1.679-1.594-2.154-3.077-2.21Z" transform="translate(-81.166 -110.25)" fill="#191d66"/>
    </g>
  </g>
</svg>
